<svg width="136" height="25" viewBox="0 0 136 25" fill="none" xmlns="http://www.w3.org/2000/svg">
<g clip-path="url(#clip0_448_301)">
<path d="M29.2353 19.828H10.0728C7.56034 19.828 5.52201 17.9449 5.52201 15.6237V9.86944C5.52201 7.54831 7.56034 5.66519 10.0728 5.66519H29.2353V0.199386C28.7186 0.125949 28.1906 0.0866077 27.654 0.0866077H10.2175C4.58234 0.0866077 0.0117188 4.30923 0.0117188 9.51537V15.49C0.0117188 20.6961 4.58234 24.9188 10.2175 24.9188H27.6512C28.1906 24.9188 28.7186 24.8794 29.2324 24.806V19.828H29.2353ZM45.363 15.4742H55.5036C59.7364 15.4742 63.1686 12.3034 63.1686 8.39284V7.16539C63.1686 5.74387 62.7115 4.41938 61.9308 3.30996C60.5625 1.36913 58.1977 0.0839844 55.5036 0.0839844H42.6803C36.9741 0.0839844 32.3496 4.3066 32.3496 9.51275V15.4874C32.3496 20.6935 36.9741 24.9161 42.6803 24.9161H60.3297C60.8748 24.9161 61.4085 24.8768 61.9308 24.8034V19.828H42.5327C39.989 19.828 37.9251 17.9449 37.9251 15.6237V15.4769H45.363V15.4742ZM38.0046 9.91928C37.9961 9.65962 37.9649 8.13056 39.2765 6.89788C40.5909 5.65994 42.2545 5.66256 42.5355 5.66519H55.725C55.9319 5.66519 56.1368 5.70284 56.3279 5.77599C56.5191 5.84914 56.6928 5.95636 56.8391 6.09153C56.9854 6.22669 57.1015 6.38716 57.1806 6.56377C57.2598 6.74037 57.3006 6.92965 57.3006 7.12081V8.89116C57.3006 9.08232 57.2598 9.2716 57.1806 9.4482C57.1015 9.62481 56.9854 9.78527 56.8391 9.92044C56.6928 10.0556 56.5191 10.1628 56.3279 10.236C56.1368 10.3091 55.9319 10.3468 55.725 10.3468H38.72C38.4929 10.352 38.263 10.3547 38.0359 10.3599C38.0217 10.213 38.0131 10.0661 38.0046 9.91928Z" fill="#1f2937"/>
<path d="M37.9244 9.76696C37.9273 9.76958 37.933 9.77221 37.9358 9.77483C37.9301 9.7591 37.9273 9.74074 37.9244 9.725V9.76696ZM37.9244 9.76696V9.725C37.9017 9.64632 37.8819 9.56501 37.8648 9.48633H37.5469C37.6576 9.59648 37.7853 9.6909 37.9244 9.76696Z" fill="#1f2937"/>
<path d="M37.8652 9.48378C37.8823 9.56509 37.905 9.64377 37.9249 9.72245V9.48378H37.8652ZM83.5686 8.96973C83.5146 8.96973 83.4607 8.97497 83.4096 8.98022C83.4863 8.97497 83.5629 8.97497 83.6395 8.97235C83.614 8.97235 83.5913 8.96973 83.5686 8.96973Z" fill="#1f2937"/>
<path d="M97.9304 0C95.2789 3.94985 92.6302 7.89708 89.9787 11.8469C88.5962 13.9058 87.2136 15.9673 85.8311 18.0261L84.8006 19.5604C84.4712 19.8437 84.1107 20.001 83.7331 20.001C83.4606 20.001 83.1994 19.9197 82.9496 19.7676C82.4499 19.0228 81.9475 18.2753 81.4478 17.5304L77.7686 12.0463C75.0745 8.03084 72.3776 4.01542 69.6835 0H63.7246C68.6955 7.54826 73.6693 15.0991 78.6402 22.6474C78.6685 22.629 78.6998 22.6107 78.7282 22.5923C80.0653 24.0794 81.9049 25 83.9347 25C86.9837 25 89.604 22.9254 90.7395 19.9617C95.1228 13.3078 99.5032 6.6539 103.886 0H97.9304Z" fill="#1f2937"/>
<path d="M119.747 25C117.621 16.9482 115.492 8.89897 113.365 0.847146C118.845 8.89897 124.321 16.9482 129.8 25H135.989C131.421 18.3461 126.853 11.6922 122.288 5.03829C121.104 2.07459 118.376 0 115.197 0C113.082 0 111.165 0.917961 109.771 2.40768C109.74 2.38932 109.712 2.37096 109.681 2.3526C104.5 9.90086 99.3157 17.4517 94.1348 25H100.343H119.747Z" fill="#1f2937"/>
</g>
<defs>
<clipPath id="clip0_448_301">
<rect width="136" height="25" fill="white"/>
</clipPath>
</defs>
</svg>
