<svg width="59" height="70" viewBox="0 0 59 70" fill="none" xmlns="http://www.w3.org/2000/svg">
<path d="M55.373 7.2949C51.7694 6.9631 48.0838 6.71426 44.2345 6.71426C30.2294 6.71426 15.1596 9.78338 2.71067 21.3133V41.0553C2.71067 47.5253 5.0858 52.8341 9.50846 56.5668C13.4397 59.8018 25.561 65.3594 29.0009 66.9355C32.3588 65.4424 44.4802 59.9677 48.4933 56.5668C52.9979 52.8341 55.2911 47.6083 55.2911 41.0553V7.2949M5.33151 39.0645V22.9723H10.4094V39.2304C10.4094 40.6405 10.737 42.7972 13.0302 42.7972C14.013 42.7972 14.832 42.5484 15.4053 42.1336V22.9723H20.4013V45.1198C18.4357 46.447 15.8967 47.1935 12.7845 47.1935C7.78854 47.1935 5.33151 44.4562 5.33151 39.0645ZM28.0181 57.5622H22.9402V24.2995C24.742 23.1382 26.9534 22.4746 29.738 22.4746C35.7987 22.4746 39.0747 27.1198 39.0747 34.5023C39.0747 41.9677 35.8806 47.0276 30.2294 47.0276C29.1647 47.0276 28.4276 46.8617 27.9362 46.7788L28.0181 57.5622ZM28.0181 42.6313C28.3457 42.7972 29.0009 42.9631 29.6561 42.9631C32.5226 42.9631 33.9149 40.2258 33.9149 34.6682C33.9149 28.9447 32.6864 26.6221 29.738 26.6221C29.0828 26.6221 28.3457 26.788 27.9362 26.9539L28.0181 42.6313ZM40.2213 29.1106C40.2213 24.9631 43.6612 22.5576 47.0191 22.4746C49.8037 22.3917 51.6875 23.47 52.5884 24.1336V28.6129C51.5237 27.5345 49.8037 26.5391 48.0838 26.5391C46.6915 26.5391 45.1354 27.2027 45.1354 28.9447C45.0535 30.7696 46.6096 31.5161 48.4114 32.6774C52.5884 35.1659 53.4074 37.4055 53.3255 40.3917C53.2436 43.6267 51.0322 47.1935 46.0363 47.1935C44.0707 47.1935 42.105 46.5299 40.467 45.6175V40.8894C41.7774 42.0507 43.6612 42.9631 45.2992 42.9631C47.1829 42.9631 48.3295 41.8848 48.3295 40.1428C48.3295 38.5668 47.4286 37.6543 45.2173 36.3272C41.0403 33.8387 40.3032 31.8479 40.2213 29.1106ZM7.87044 58.6405C2.79258 54.4101 0.0898438 48.3548 0.0898438 41.0553V6.54836C8.11614 2.23499 17.8624 -0.00463867 29.0828 -0.00463867C40.3032 -0.00463867 50.0494 2.15204 58.0757 6.54836V41.1382C58.0757 48.4378 55.373 54.4931 50.2951 58.7235C45.6268 62.6221 30.8027 69.1751 29.0828 69.9216C27.3629 69.0921 12.5388 62.5391 7.87044 58.6405ZM47.5105 65.9401V68.9262H48.0838V67.682H48.1657C48.1657 67.765 48.9847 68.9262 48.9847 68.9262H49.6399C49.6399 68.9262 48.8209 67.7649 48.739 67.5991C49.1485 67.5161 49.3942 67.1843 49.3942 66.7696C49.3942 66.3548 49.1485 65.8571 48.4114 65.8571L47.5105 65.9401ZM48.3295 66.3548C48.8209 66.3548 48.8209 66.6037 48.8209 66.7696C48.8209 67.0184 48.739 67.2673 48.1657 67.2673H48.0838V66.3548H48.3295ZM50.377 67.4332C50.377 68.5115 49.4761 69.4239 48.4114 69.4239C47.3467 69.4239 46.4458 68.5115 46.4458 67.4332C46.4458 66.3548 47.3467 65.3594 48.4114 65.3594C49.4761 65.3594 50.377 66.2719 50.377 67.4332ZM48.4114 64.9447C47.101 64.9447 45.9544 66.023 45.9544 67.4332C45.9544 68.7603 47.0191 69.9216 48.4114 69.9216C49.7218 69.9216 50.8684 68.8433 50.8684 67.4332C50.7865 66.023 49.7218 64.9447 48.4114 64.9447Z" fill="#1f2937"/>
</svg>
