<svg width="186" height="36" viewBox="0 0 186 36" fill="none" xmlns="http://www.w3.org/2000/svg">
<g clip-path="url(#clip0_448_270)">
<path d="M182.255 21.951C181.766 21.1558 181.257 20.6578 180.701 20.3211C182.964 19.5824 183.979 18.2961 183.979 16.0326C183.979 12.5997 181.858 10.9324 177.498 10.9324H170.876V28.162H175.329V21.3639H175.895C176.899 21.3639 177.26 21.6281 178.045 22.9474L181.141 28.162H186L182.255 21.951ZM175.329 14.2577H177.357C179.091 14.2577 179.645 14.7467 179.645 16.2642C179.645 17.7722 179.026 18.3337 177.357 18.3337H175.329V14.2577ZM159.843 24.6684V21.0602H165.771V17.73H159.843V14.4234H167.352V10.9321H155.395V28.162H167.709L168.023 24.6684H159.843ZM146.267 19.0489C146.436 18.8362 152.784 10.9324 152.784 10.9324H148.157C148.157 10.9324 143.05 17.5454 142.472 18.2866V10.9324H138.023V28.162H142.472V20.8754C143.05 21.6237 148.067 28.162 148.067 28.162H153.355C153.355 28.162 146.436 19.2666 146.267 19.0489ZM130.489 10.9324V20.3491C129.899 19.5751 123.32 10.9324 123.32 10.9324H119.584V28.162H123.36V17.7465C123.955 18.5228 131.299 28.162 131.299 28.162H134.264V10.9324H130.489ZM108.549 24.6684V21.06H114.479V17.73H108.549V14.4234H116.058V10.9321H104.098V28.162H116.417L116.726 24.6684H108.549ZM95.8902 10.9324V17.6155H89.7393V10.9324H85.2884V28.162H89.7393V21.06H95.8902V28.162H100.342V10.9324H95.8902ZM82.081 24.2637C80.4354 24.8739 79.3655 25.087 77.9793 25.087C75.0974 25.087 73.975 23.5528 73.975 19.6054C73.975 15.4874 75.0666 13.9583 78.0031 13.9583C79.3655 13.9583 80.557 14.1992 81.9834 14.7557L82.2283 14.8538V11.288L82.1118 11.2434C80.773 10.7591 79.4318 10.5371 77.8866 10.5371C75.4875 10.5371 73.4449 11.2084 71.9802 12.4851C70.147 14.0751 69.2935 16.3436 69.2935 19.6288C69.2935 22.414 69.8738 24.4062 71.122 25.8935C72.5771 27.6054 74.8668 28.508 77.7464 28.508C79.3584 28.508 80.9062 28.1826 82.2187 27.5631L82.3208 27.5189V24.175L82.081 24.2637ZM62.9807 17.8374C62.9831 17.84 62.7028 17.7208 62.7028 17.7208C60.9098 16.9534 60.8383 16.9252 60.4129 16.6262C59.8256 16.2146 59.6305 15.8943 59.6305 15.3586C59.6305 14.4163 60.42 13.9347 61.9819 13.9347C63.3635 13.9347 64.3741 14.1684 65.9789 14.8726L66.2309 14.98V11.3792L66.1121 11.3345C64.5692 10.7757 63.2781 10.5371 61.7967 10.5371C57.8117 10.5371 55.5293 12.4455 55.5293 15.7751C55.5293 18.2819 56.6658 19.7227 59.5901 20.9082C62.6953 22.1944 62.9901 22.517 62.9901 23.457C62.9901 24.5536 62.063 25.1102 60.2367 25.1102C58.663 25.1102 57.4717 24.7994 55.6933 23.9246L55.4316 23.7962V27.3993L55.5361 27.4509C57.1886 28.2039 58.6319 28.508 60.5176 28.508C64.8758 28.508 67.277 26.5998 67.277 23.1321C67.277 20.5035 66.193 19.1685 62.9807 17.8376" fill="#1f2937"/>
<path d="M13.5838 28.1595H6.11047V7.83824H13.5838C18.8481 7.83824 21.6679 11.131 21.6679 17.9048C21.6679 23.7861 19.7895 28.1123 13.5838 28.1591V28.1595ZM16.8292 18.3285C16.8292 14.2342 16.4038 11.0398 11.9861 11.0398H10.9969V24.8645H12.7374C15.3217 24.8645 16.8292 22.7975 16.8292 18.3285ZM31.7278 28.1593H23.8315V7.83845H32.1062C36.0077 7.83845 38.1216 9.44027 38.1216 13.2495C38.1216 15.2255 36.4761 16.6355 34.6907 17.5288C37.1825 18.2325 38.8729 19.741 38.8729 22.278C38.8729 26.4193 35.3945 28.1593 31.728 28.1593H31.7278ZM28.6725 15.8823H30.3657C31.9634 15.8823 33.138 15.179 33.138 13.4365C33.138 11.5077 31.6328 10.9907 30.0349 10.9907H28.6725V15.8823ZM33.7015 22.1847C33.7015 20.1152 32.3866 19.6452 30.4607 19.6452H28.6725V24.8645H30.413C32.1535 24.8645 33.7015 24.301 33.7015 22.1847ZM40.0023 2.47897H4.4629C2.02098 2.47897 0 4.4057 0 6.89846V29.0527C0 31.5453 2.02119 33.5211 4.4629 33.5211H40.0023C42.3991 33.5211 44.4224 31.5453 44.4224 29.0527V6.89824C44.4224 4.40549 42.3991 2.47876 40.0023 2.47876V2.47897ZM41.1769 29.0525C41.1769 29.7588 40.7059 30.3248 40.0023 30.3248H4.4629C3.75912 30.3248 3.24312 29.7588 3.24312 29.0525V6.89846C3.24312 6.1922 3.75912 5.62871 4.4629 5.62871H40.0023C40.7061 5.62871 41.1769 6.1922 41.1769 6.89846V29.0525Z" fill="#1f2937"/>
</g>
<defs>
<clipPath id="clip0_448_270">
<rect width="186" height="36" fill="white"/>
</clipPath>
</defs>
</svg>
