<svg width="160" height="47" viewBox="0 0 160 47" fill="none" xmlns="http://www.w3.org/2000/svg">
<path fill-rule="evenodd" clip-rule="evenodd" d="M153.378 33.9724C153.378 35.475 152.817 36.6288 151.696 37.4311C150.706 38.1837 149.442 38.5583 147.904 38.5583C144.697 38.5583 143.094 38.0394 143.094 37.0034V34.71C143.094 34.1149 143.264 33.8174 143.602 33.8174C143.628 33.8174 143.679 33.8555 143.751 33.9334C144.039 34.5284 144.586 35.3962 145.387 36.5358C146.013 37.1583 146.751 37.47 147.604 37.47C148.465 37.47 149.195 37.2363 149.807 36.7696C150.413 36.3047 150.719 35.6557 150.719 34.8277C150.719 33.8679 150.08 32.9877 148.803 32.1854C147.613 31.5174 146.427 30.8435 145.244 30.1639C143.967 29.2315 143.329 28.1175 143.329 26.8229C143.329 23.8167 145.375 22.314 149.469 22.314C150.642 22.314 151.416 22.5089 151.795 22.8976C152.173 23.2863 152.361 24.0762 152.361 25.268C152.361 26.0968 152.245 26.5121 152.01 26.5121C151.749 26.5121 151.475 26.2385 151.188 25.6957C150.798 24.9705 150.472 24.4782 150.211 24.2187C149.689 23.675 148.999 23.4032 148.139 23.4032C147.408 23.4032 146.802 23.6237 146.32 24.0638C145.837 24.5039 145.596 25.0865 145.596 25.8117C145.596 26.6423 146.261 27.4959 147.589 28.3761L151.344 30.7093C152.701 31.7188 153.378 32.8071 153.378 33.9724ZM141.098 24.0629C141.098 25.2547 140.434 25.8507 139.103 25.8507C138.791 25.8507 138.354 25.7019 137.793 25.4026C137.234 25.106 136.796 24.9563 136.485 24.9563C135.285 24.9563 134.686 25.7728 134.686 27.4056V35.1775C134.686 36.0063 135.024 36.5509 135.702 36.8103C135.963 36.9139 136.575 36.9919 137.539 37.0423C138.217 37.0946 138.557 37.2761 138.557 37.5869C138.557 37.872 138.257 38.0137 137.658 38.0137H130.461C129.888 38.0137 129.6 37.8579 129.6 37.5488L129.874 37.0822C130.814 36.875 131.414 36.5633 131.673 36.1498C131.908 35.8124 132.026 35.1377 132.026 34.1282V27.7554C132.026 26.8495 131.772 26.1624 131.264 25.6957C130.755 25.2291 130.5 24.9705 130.5 24.9183C131.707 23.8236 132.933 22.7482 134.175 21.6924C134.49 21.6924 134.659 21.9652 134.685 22.5089V23.6352C134.685 23.9203 134.789 24.1532 134.997 24.3356C135.023 24.3356 135.486 23.9991 136.392 23.3253C137.305 22.6514 138.119 22.314 138.842 22.314C140.349 22.314 141.098 22.8967 141.098 24.0629ZM129.29 30.3578C129.29 32.7424 128.598 34.6852 127.215 36.1878C125.808 37.7684 123.918 38.5592 121.545 38.5592C119.148 38.5592 117.276 37.8207 115.934 36.3437C114.592 34.8667 113.921 32.9248 113.921 30.5136C113.921 28.1308 114.617 26.1677 116.012 24.6269C117.407 23.0853 119.291 22.314 121.663 22.314C123.775 22.314 125.574 23.1243 127.061 24.7429C128.546 26.3625 129.29 28.2344 129.29 30.3578ZM126.316 30.2816C126.316 28.7011 125.926 27.1984 125.143 25.7728C124.231 24.0886 123.058 23.2465 121.625 23.2465C119.956 23.2465 118.704 24.1142 117.87 25.8507C117.219 27.1975 116.893 28.8047 116.893 30.6686C116.893 32.2235 117.284 33.7005 118.066 35.0996C118.978 36.7838 120.153 37.625 121.586 37.625C123.228 37.625 124.478 36.7705 125.339 35.0615C125.991 33.7129 126.316 32.1199 126.316 30.2816ZM112.754 23.869C112.754 24.5942 112.101 24.9572 110.798 24.9572C110.406 24.9572 109.898 24.9245 109.273 24.8598C108.648 24.7952 108.269 24.7633 108.138 24.7633C107.592 24.7633 107.253 24.8731 107.122 25.0936C106.991 25.3141 106.926 25.7214 106.926 26.3164C106.926 27.1727 106.907 28.4354 106.869 30.1054C106.835 31.3682 106.815 32.6313 106.809 33.8944C106.809 35.6052 107.708 36.4588 109.507 36.4588C109.794 36.4588 110.205 36.388 110.74 36.2463C111.275 36.1028 111.671 36.032 111.932 36.032L112.363 36.4207C112.363 36.9635 111.821 37.4045 110.733 37.7419C109.886 38.027 109.11 38.1687 108.414 38.1687C105.571 38.1687 104.15 36.8218 104.15 34.1273V29.892V25.6559C104.15 25.1379 103.577 24.9174 102.429 24.9953L102.117 24.6845C102.143 24.503 102.572 24.1532 103.408 23.6343C104.346 23.0641 104.866 22.7285 104.97 22.624C104.997 22.5983 105.285 22.1706 105.831 21.3418C106.301 20.6679 106.6 20.3306 106.73 20.3306C106.965 20.3306 107.122 20.4598 107.2 20.7193C107.253 20.8751 107.265 21.1337 107.239 21.4967C107.187 21.9634 107.161 22.1839 107.161 22.1582C107.161 22.7285 107.604 23.0127 108.491 23.0127C108.752 23.0127 109.144 22.9808 109.664 22.9162C110.186 22.8515 110.512 22.8188 110.642 22.8188C112.049 22.8197 112.754 23.1694 112.754 23.869ZM101.14 37.5869C101.14 37.872 100.814 38.0137 100.161 38.0137H93.9042C93.4084 38.0137 93.1619 37.872 93.1619 37.5869C93.1619 37.3531 93.4084 37.1858 93.9042 37.0822C94.5815 36.9263 95.0511 36.7705 95.3121 36.6155C95.7817 36.2542 96.0155 35.6716 96.0155 34.8667V26.4723C96.0155 25.9808 95.7031 25.6568 95.0773 25.5018C94.4514 25.346 94.139 25.1644 94.139 24.9572C94.139 24.8023 94.4514 24.6075 95.0773 24.3746C95.4692 24.193 95.8467 24.0248 96.2115 23.869C96.2648 23.8433 97.0459 23.3253 98.5577 22.314L98.8331 22.5868C98.8331 22.8197 98.8069 23.157 98.7536 23.5971C98.7022 24.0372 98.676 24.3746 98.676 24.6075V35.6052C98.676 36.3313 99.0869 36.7971 99.9068 37.0043C100.729 37.2115 101.14 37.4054 101.14 37.5869ZM91.726 37.2761C91.6483 37.8472 90.1881 38.274 87.3398 38.5592L86.6436 38.0544V37.1203L86.4476 36.8103C85.2555 37.6648 83.5993 38.0916 81.4934 38.0916C79.3892 38.0916 77.6292 37.4311 76.215 36.1099C74.8008 34.7888 74.0892 33.0922 74.0892 31.0201C74.0892 28.895 74.8911 27.0806 76.4949 25.5788C78.0979 24.0753 79.9817 23.3244 82.1463 23.3244C82.6159 23.3244 83.2878 23.4732 84.1601 23.7707C85.0325 24.0682 85.7035 24.2311 86.174 24.2568L86.6436 23.4404V15.1629C86.6436 14.6449 86.2589 14.2756 85.4903 14.0551C84.7218 13.8346 84.3353 13.5947 84.3353 13.3361C84.3353 12.896 84.6758 12.6755 85.3531 12.6755H89.0285L89.4205 13.2192C89.4205 13.7629 89.4015 14.6112 89.3627 15.765C89.3288 16.6259 89.309 17.4873 89.3031 18.3488V36.2268C89.3031 36.8218 89.5785 37.1194 90.1249 37.1194C90.3082 37.1194 90.7245 37.0414 91.3756 36.8874L91.726 37.2761ZM86.8386 33.5075C86.8386 30.2941 86.7465 28.3123 86.5632 27.5597C86.043 25.384 84.6866 24.2958 82.4976 24.2958C80.7764 24.2958 79.4145 24.8917 78.4103 26.0844C77.407 27.2763 76.9049 28.7391 76.9049 30.4756C76.9049 32.444 77.5109 33.9608 78.7237 35.0225C79.9356 36.0842 81.5458 36.6155 83.5533 36.6155C84.8058 36.6155 85.6646 36.403 86.1333 35.9736C86.6038 35.5467 86.8386 34.725 86.8386 33.5075ZM69.9432 25.6568C69.9432 24.9315 69.6425 24.348 69.0428 23.9079C68.4715 23.4766 67.7699 23.2442 67.0489 23.2473C66.032 23.2473 65.0278 23.6688 64.0372 24.5039C63.0465 25.3389 62.5507 26.2527 62.5507 27.2435C62.5507 27.5101 63.2425 27.6376 64.6233 27.6376H66.4619C68.7828 27.6376 69.9432 26.9788 69.9432 25.6568ZM72.5242 27.8333C72.5242 28.454 72.2641 28.7657 71.7421 28.7657H62.1994C62.1482 29.2176 62.1223 29.672 62.1218 30.1267C62.1218 34.5036 64.0119 36.6935 67.7921 36.6935C68.8875 36.6935 69.7734 36.434 70.4516 35.9169C70.7903 35.6574 71.1425 35.3856 71.5073 35.1005L71.8595 35.4122C71.3384 36.3959 70.5428 37.1672 69.4736 37.7242C68.4044 38.2811 67.2963 38.5592 66.1494 38.5592C63.9071 38.5592 62.1859 37.7684 60.9875 36.1878C59.9183 34.7631 59.3846 32.8983 59.3846 30.5916C59.3846 28.4159 60.0104 26.5236 61.2621 24.9183C62.6175 23.1827 64.365 22.314 66.5025 22.314C68.0666 22.314 69.461 22.8515 70.6873 23.9274C71.911 25.0024 72.5242 26.304 72.5242 27.8333ZM57.1414 30.2037C57.1414 32.4316 56.3593 34.323 54.7952 35.8761C53.2311 37.4311 51.3275 38.2094 49.0861 38.2094C47.261 38.2094 45.9443 37.8977 45.1361 37.2752L44.745 37.6639V44.4662C44.745 45.0091 45.2146 45.3331 46.1529 45.4367C47.2474 45.5926 47.8868 45.7874 48.0692 46.0194C48.0439 46.3311 47.652 46.486 46.8961 46.486H39.621L38.7604 45.9813L39.3077 45.5545C40.1683 45.4766 40.7679 45.3588 41.1066 45.2039C41.68 44.9462 41.9672 44.4671 41.9672 43.7667V26.1225C41.9672 25.3707 41.5888 24.9245 40.833 24.7819C40.0771 24.6393 39.6996 24.4773 39.6996 24.2967C39.6996 24.0638 40.1493 23.791 41.0416 23.4802L42.6906 22.9357C43.0102 22.7807 43.6225 22.3654 44.5482 21.6924L44.9789 22.2361C44.9789 22.4185 44.9401 22.7028 44.8615 23.0915C44.7839 23.4802 44.7441 23.7778 44.7441 23.9858L44.9789 24.7243C45.4747 24.6987 46.2631 24.472 47.3323 24.0434C48.4079 23.6166 49.2685 23.4023 49.9259 23.4023C52.0445 23.4023 53.7711 24.0168 55.1203 25.2477C56.4704 26.4785 57.1414 28.1308 57.1414 30.2037ZM54.7167 31.2141C54.7167 29.3218 54.0123 27.781 52.6044 26.5892C51.2751 25.4743 49.6324 24.9174 47.6773 24.9174C47.1038 24.9174 46.5042 25.021 45.8784 25.2282C45.0439 25.4867 44.6276 25.8365 44.6276 26.2775V34.555C44.6276 35.3077 45.1613 35.9682 46.2306 36.5367C47.1436 37.0299 48.0168 37.2752 48.8503 37.2752C50.5978 37.2752 52.012 36.6996 53.0938 35.5459C54.1757 34.3947 54.7167 32.9487 54.7167 31.2141ZM38.0181 37.7808C37.6596 37.9367 37.3462 38.0146 37.0925 38.0146H31.5594C31.0636 38.0146 30.7963 37.8853 30.7448 37.6259C31.0311 37.4204 31.3309 37.2123 31.6443 37.0051C32.0868 36.6935 32.3216 36.4482 32.3478 36.2666C30.5489 33.4942 29.532 32.1093 29.2972 32.1093C28.9324 32.1093 28.4113 32.6335 27.7331 33.6828C27.0558 34.7312 26.7172 35.4644 26.7172 35.8779C26.7172 36.2932 26.9393 36.6421 27.3818 36.9281C27.7467 37.1876 28.125 37.4328 28.5161 37.6666C28.4899 37.9004 28.2289 38.0164 27.7268 38.0164H22.4674C21.7314 38.0164 21.3593 37.8871 21.3593 37.6276C21.3593 37.4992 21.7566 37.2398 22.545 36.8511C23.4445 36.4101 23.9267 36.1648 24.0116 36.1126C24.6952 35.5698 25.4583 34.7534 26.3063 33.6651C26.9749 32.7691 27.6462 31.8751 28.3201 30.983C28.2424 30.6978 27.4595 29.6494 25.9739 27.8351C24.6708 26.2022 23.7578 25.114 23.2359 24.5703C23.1582 24.4923 22.825 24.2984 22.2389 23.9876C21.6528 23.6768 21.3593 23.4696 21.3593 23.3651C21.3593 23.08 21.6456 22.9374 22.2199 22.9374H27.8117C28.3851 22.9374 28.6723 23.08 28.6723 23.3651C28.6723 23.5466 28.3915 23.722 27.8316 23.8902C27.2707 24.0585 26.9908 24.3241 26.9908 24.6871C26.9908 24.9457 27.4604 25.6789 28.3987 26.8823C29.337 28.0874 29.9104 28.6895 30.119 28.6895C30.4324 28.6895 30.9471 28.0759 31.6642 26.8442C32.3812 25.6125 32.7397 24.804 32.7397 24.4144C32.7397 24.1293 32.4525 23.9487 31.8791 23.8707C31.3056 23.7928 31.0185 23.6246 31.0185 23.3651C31.0185 23.08 31.2921 22.9374 31.8402 22.9374H36.8848C37.6406 22.9374 38.019 23.0933 38.019 23.4041C38.019 23.5856 37.9079 23.7016 37.6867 23.7538C37.4866 23.8019 37.2844 23.8409 37.0807 23.8707C36.1686 24.0779 34.9233 24.9333 33.3466 26.436C31.7689 27.9387 30.9805 29.0526 30.9805 29.7769C30.9805 30.2958 31.861 31.5718 33.6139 33.6058C35.3667 35.6397 36.5533 36.7979 37.1656 37.084C37.348 37.1619 37.5377 37.2513 37.7264 37.3558C37.9206 37.4576 38.0181 37.6011 38.0181 37.7808ZM19.3184 32.4174C19.136 33.4552 18.9662 34.4913 18.8099 35.5273C18.5237 37.0822 18.0938 37.8587 17.5195 37.8587C15.6944 37.8587 12.9771 37.8844 9.36571 37.9367C5.75436 37.9889 3.04968 38.0146 1.25078 38.0146C0.62496 38.0146 0.3125 37.8587 0.3125 37.5497C0.3125 37.238 0.637603 37.0184 1.28961 36.8891C2.30646 36.7076 2.91964 36.5775 3.12825 36.5004C3.80555 36.2153 4.1451 35.7097 4.1451 34.9854V16.6399C4.1451 15.9926 3.83264 15.5383 3.20591 15.2797C3.04968 15.2275 2.47624 15.1115 1.48558 14.93C0.859756 14.8007 0.560842 14.5935 0.586128 14.3084C0.977154 13.9976 1.35554 13.8417 1.72038 13.8417H17.3632C17.7543 13.8417 17.9493 14.1649 17.9493 14.8131V18.8545L17.636 19.0873C17.375 19.0873 17.1411 18.8545 16.9325 18.3878C16.8076 18.0405 16.6901 17.6907 16.5803 17.3385C15.9545 15.9651 14.2603 15.2789 11.4969 15.2789C11.2883 15.2789 10.9822 15.2656 10.5776 15.2399C10.2846 15.2187 9.99095 15.2057 9.69713 15.2009C8.23778 15.2009 7.50721 15.8615 7.50721 17.1827V23.9451C7.50721 24.541 7.98944 24.8386 8.95482 24.8386H12.866C13.648 24.8386 14.2341 24.541 14.6252 23.9451C14.8338 23.66 15.0559 23.1287 15.2898 22.3512C15.446 21.7553 15.6285 21.4578 15.8371 21.4578C16.2019 21.4578 16.3843 21.7163 16.3843 22.2344V29.3466L15.9536 30.0071C15.6411 30.0071 15.4189 29.7734 15.2889 29.3085C15.2344 28.9588 15.1824 28.6087 15.1327 28.2583C14.8464 26.6777 13.6986 25.887 11.6911 25.887H9.22664C8.07975 25.9906 7.5063 26.3404 7.5063 26.9372V34.5541C7.5063 35.9275 8.36692 36.6138 10.0873 36.6138C12.9283 36.6138 14.701 36.4198 15.4054 36.0311C16.0312 35.6955 17.2043 34.3602 18.9246 32.0287L19.3184 32.4174ZM159.024 20.8636C159.024 21.6145 158.759 22.2627 158.229 22.8082C157.697 23.3536 157.05 23.6272 156.285 23.6272C155.525 23.6272 154.879 23.3536 154.345 22.8082C153.812 22.2627 153.544 21.6145 153.544 20.8636C153.539 20.502 153.607 20.143 153.744 19.8071C153.881 19.4713 154.084 19.1653 154.342 18.9067C154.871 18.3577 155.52 18.0832 156.285 18.0832C157.05 18.0832 157.697 18.3577 158.229 18.9067C158.759 19.4557 159.024 20.1074 159.024 20.8636ZM158.554 20.8636C158.554 20.2438 158.332 19.6992 157.89 19.2299C157.446 18.7615 156.911 18.5268 156.285 18.5268C155.659 18.5268 155.123 18.7615 154.68 19.2299C154.236 19.6992 154.016 20.2438 154.016 20.8636C154.016 21.4835 154.236 22.028 154.68 22.4965C155.123 22.9658 155.659 23.2004 156.285 23.2004C156.911 23.2004 157.446 22.9658 157.89 22.4965C158.332 22.0271 158.554 21.4835 158.554 20.8636ZM157.798 22.3132H157.311C157.194 22.3132 157.011 22.1254 156.763 21.75L156.293 21H155.866V21.742C155.866 21.9244 155.885 22.0307 155.922 22.0617C155.959 22.0936 156.074 22.1175 156.266 22.1343V22.3132H154.987V22.1343C155.162 22.1228 155.268 22.0971 155.305 22.0573C155.342 22.0183 155.361 21.9129 155.361 21.742V19.8577C155.361 19.6815 155.342 19.5717 155.305 19.5292C155.268 19.4867 155.163 19.4566 154.987 19.4398V19.3291H156.388C156.644 19.3291 156.86 19.3884 157.041 19.5079C157.249 19.6443 157.353 19.832 157.353 20.0711C157.353 20.265 157.29 20.4368 157.163 20.5874C157.034 20.7379 156.872 20.845 156.676 20.907C156.844 21.1461 157.015 21.3843 157.189 21.6234C157.415 21.9138 157.618 22.1184 157.798 22.237V22.3132ZM156.849 20.0959C156.849 19.6974 156.641 19.4982 156.223 19.4982H155.866V20.8291H156.249C156.65 20.8291 156.849 20.5847 156.849 20.0959Z" fill="#1f2937"/>
<path fill-rule="evenodd" clip-rule="evenodd" d="M98.7448 4.26967V16.3929L94.0371 21.0425V8.91847L102.791 0.254883H130.902L118.348 12.8332H102.926L106.475 8.551H101.425L104.974 4.26967H98.7448Z" fill="#1f2937"/>
</svg>
