<svg width="176" height="41" viewBox="0 0 176 41" fill="none" xmlns="http://www.w3.org/2000/svg">
<g clip-path="url(#clip0_448_316)">
<path d="M53.6641 29.3436V11.627H58.247L64.05 24.7689L69.7699 11.6273H74.1561V29.3436H70.3795V19.2027L66.0195 29.3436H61.9938L57.5814 19.2552V29.3436H53.6641ZM80.3185 29.3436H75.8751L83.5097 11.627H88.9825L96.6705 29.3436H92.2834L90.7707 25.8001L81.7848 25.8277L80.3185 29.3436ZM89.3548 22.4857L86.2319 15.1681L83.1795 22.4857H89.3548ZM98.4747 29.3436V11.627H114.919V15.1684H102.446V18.7147H113.14V22.2299H102.446V25.8025H114.919V29.3436H98.4747Z" fill="#1f2937"/>
<path d="M118.109 29.3437V11.627H132.187C132.187 11.627 133.094 11.5215 134.052 12.4805C134.91 13.3383 134.768 14.5974 134.768 14.5974V20.5504C134.768 20.5504 134.937 21.6437 133.923 22.5791C132.945 23.481 131.521 23.2853 131.521 23.2853L134.797 29.3437H130.494L127.243 23.2853H122.137V29.3437H118.109ZM122.137 19.743H130.772V15.1693H122.137V19.743ZM142.009 29.3437H140.646C140.646 29.3437 139.449 29.3201 138.769 28.5824C137.983 27.7247 138.01 26.7431 138.01 26.7431V24.4284H142.009V25.803H150.505V22.2287H140.755C140.755 22.2287 139.553 22.354 138.812 21.5708C137.989 20.7036 138.078 19.658 138.078 19.658V14.343C138.078 14.343 138.061 13.4495 138.645 12.6558C139.486 11.5142 140.783 11.628 140.783 11.628L151.922 11.6364C151.922 11.6364 152.831 11.5703 153.721 12.4575C154.696 13.4254 154.47 14.4568 154.47 14.4568V16.5716H150.501V15.1703H142.005V18.7147H151.722C151.722 18.7147 152.862 18.6287 153.665 19.5719C154.47 20.5157 154.47 21.5713 154.47 21.5713V26.5726C154.47 26.5726 154.601 27.5542 153.837 28.4455C152.971 29.4612 151.806 29.3447 151.806 29.3447H142.005" fill="#1f2937"/>
<path d="M158.277 29.3385V11.6167H162.355V18.7041L170.128 11.6167H175.658L166.387 19.8481L175.989 29.3385H170.271L162.355 21.2748V29.3385H158.277Z" fill="#1f2937"/>
<path fill-rule="evenodd" clip-rule="evenodd" d="M37.7551 4.7064C37.7465 2.32904 35.9682 0.0202176 33.208 0.0321521L4.57212 0.0137388C2.17034 9.93283e-05 0.0110562 2.07296 0.0130439 4.7064L0.0117188 36.2422C0.0117188 38.6912 1.89505 40.9468 4.56019 40.9519H33.1871C35.7857 40.9441 37.7501 38.8156 37.7634 36.26L37.7551 4.7064ZM32.2436 9.68474L21.638 14.8357L21.6347 14.8353L18.8742 3.07471H18.799L16.0199 14.7944L5.40367 9.64314C5.39582 9.65363 5.38742 9.66294 5.37945 9.67177C5.35377 9.70024 5.33257 9.72373 5.34901 9.76589L12.7071 19.1887L12.6329 19.2661L1.95703 24.5559C1.95703 24.5896 1.95703 24.6227 2.00076 24.6568L13.743 24.6888L11.0901 36.7639C11.1335 36.7973 11.1554 36.7973 11.1984 36.7632L18.8139 27.0716H18.9119L26.6063 36.7502L26.6818 36.682L23.9911 24.65L35.7562 24.638C35.8298 24.5831 35.7761 24.5385 35.7218 24.5057L25.0082 19.1761L32.3417 9.73929C32.3299 9.73537 32.3192 9.7237 32.3083 9.71174C32.2898 9.69147 32.2705 9.67037 32.2436 9.68474Z" fill="#1f2937"/>
</g>
<defs>
<clipPath id="clip0_448_316">
<rect width="176" height="41" fill="white"/>
</clipPath>
</defs>
</svg>
