<svg width="145" height="22" viewBox="0 0 145 22" fill="none" xmlns="http://www.w3.org/2000/svg">
<path d="M25.4996 0.802979L20.8672 7.06266H46.1148C47.3915 7.06266 47.3755 7.54076 46.7515 8.38615C46.1179 9.24104 45.0577 10.7197 44.4114 11.5904C44.0835 12.0305 43.4913 12.8316 45.4525 12.8316H55.7776L58.8372 8.69645C60.7348 6.13495 59.0028 0.806143 52.2181 0.806143L25.4996 0.802979Z" fill="#1f2937"/>
<path d="M18.9914 21.1968L28.2977 8.62046H39.8453C41.122 8.62046 41.1061 9.10173 40.4821 9.94395L38.1261 13.1355C37.7981 13.5756 37.2059 14.3767 39.1672 14.3767H54.6341C53.351 16.1308 49.1739 21.1968 41.6855 21.1968H18.9914ZM72.2819 14.3735L67.2356 21.1968H53.9241L58.9704 14.3735H72.2819ZM92.671 12.8284H60.1166L69.0185 0.802979H82.3236L77.2232 7.69907H83.161L88.2678 0.802979H101.573L92.671 12.8284ZM91.528 14.3735L86.4817 21.1968H73.1766L78.2229 14.3735H91.528ZM0 17.0648H19.6059L18.5361 18.5118H0V17.0648ZM0 14.3735H21.5989L20.526 15.8205H0V14.3735ZM0 19.7562H17.616L16.5494 21.1968H0V19.7562ZM145 18.5118H125.464L126.537 17.0648H145V18.5118ZM145 21.1968H123.481L124.544 19.7562H145V21.1968ZM128.527 14.3735H145V15.8237H127.457L128.527 14.3735ZM120.001 0.802979L111.099 12.8284H96.9978L105.906 0.802979H120.001ZM95.858 14.3735C95.858 14.3735 94.8869 15.697 94.4125 16.3303C92.7442 18.5783 94.2183 21.1936 99.6722 21.1936H121.042L126.088 14.3735H95.858Z" fill="#1f2937"/>
</svg>
