<svg width="185" height="28" viewBox="0 0 185 28" fill="none" xmlns="http://www.w3.org/2000/svg">
<path d="M70.335 0.535889H63.5977V21.716H79.4157V16.1268H70.335V0.535889Z" fill="#1f2937"/>
<path d="M95.9954 13.681C95.7995 9.05057 92.4693 5.89795 87.6699 5.89795C82.6745 5.89795 79.1484 9.24761 79.1484 14.0751C79.1484 18.9025 82.5766 22.2522 87.5719 22.2522C92.4693 22.2522 95.9954 18.9025 95.9954 14.1736C96.0933 13.9766 95.9954 13.878 95.9954 13.681ZM87.5719 18.0159C85.9068 18.0159 85.1232 16.6366 85.1232 14.0751C85.1232 11.5136 85.9068 10.1343 87.5719 10.1343C89.3349 10.1343 90.3144 11.5136 90.3144 14.0751C90.3144 16.7351 89.3349 18.0159 87.5719 18.0159Z" fill="#1f2937"/>
<path d="M106.923 8.1743C105.834 6.49177 104.746 5.89795 102.668 5.89795C98.7105 5.89795 96.138 9.26301 96.0391 13.7168V14.1126C96.138 18.4674 98.6116 21.0407 102.668 21.0407C104.548 21.0407 105.735 20.4469 106.923 19.1602V20.8428C106.923 23.0202 106.329 23.8119 104.548 23.8119C102.767 23.8119 102.47 23.2181 102.174 21.8325H96.6327C97.1274 25.6924 98.7105 27.078 104.548 27.078C108.209 27.078 110.386 26.1873 111.672 24.1089C112.365 23.0202 112.661 21.9315 112.661 19.952V6.49176H106.824L106.923 8.1743ZM104.548 16.9828C102.767 16.9828 101.976 15.7952 101.976 13.7168C101.976 11.8363 102.866 10.2527 104.548 10.2527C106.23 10.2527 107.121 11.9352 107.121 14.0137C107.121 15.8941 106.23 16.9828 104.548 16.9828Z" fill="#1f2937"/>
<path d="M96.0391 13.7631V14.1579V14.0592C96.1373 13.9605 96.1373 13.8618 96.0391 13.7631ZM119.904 16.2308V6.3598H113.913V21.7586H119.904V16.2308ZM141.411 0.535889L135.323 6.3598V16.7244C135.323 18.5012 135.421 19.0934 135.912 19.8831C136.697 21.4625 138.367 22.0548 141.411 22.0548C142.394 22.0548 144.161 21.956 145.634 21.8573V17.7115H143.67C141.706 17.7115 141.51 17.4154 141.411 15.6386V10.9005H145.634V6.45852H141.411V0.535889ZM147.009 6.3598H153V21.7586H147.009V6.3598ZM161.446 18.0076C159.776 18.0076 158.893 16.6257 158.893 14.3554C158.893 11.6902 159.776 10.2095 161.446 10.2095C162.625 10.2095 163.41 11.0979 163.607 12.2824H169.303C169.008 8.53143 165.865 6.06365 161.446 6.06365C156.339 6.06365 153 9.32111 153 14.2566C153 18.9947 156.437 22.2522 161.446 22.2522C165.964 22.2522 168.91 20.3767 169.499 16.2308H163.803C163.508 17.7115 162.33 18.0076 161.446 18.0076Z" fill="#1f2937"/>
<path d="M178.812 11.9696C175.778 11.4799 175.485 11.2841 175.485 10.5007C175.485 9.91307 175.974 9.52136 177.05 9.52136C178.42 9.52136 178.812 9.81514 179.007 10.8924H184.39C184.096 7.46483 181.748 5.99588 176.855 5.99588C172.157 5.99588 169.613 7.75862 169.613 10.8924C169.613 12.4592 170.298 13.7323 171.57 14.4178C172.549 15.0054 173.332 15.2013 176.072 15.7888C178.91 16.3764 179.007 16.6702 179.007 17.3557C179.007 18.1392 178.225 18.6288 177.148 18.6288C175.093 18.6288 174.995 17.5516 174.897 16.2785H169.319C169.613 19.9998 171.374 22.2522 177.05 22.2522C181.943 22.2522 184.781 20.2936 184.781 16.8661C184.781 16.1806 184.585 15.3971 184.292 14.8095C183.705 13.3406 182.139 12.5572 178.812 11.9696ZM127.729 22.1543C132.622 22.1543 135.46 20.1957 135.46 16.7681C135.46 16.0826 135.264 15.2992 134.971 14.7116C134.286 13.3406 132.72 12.4592 129.393 11.8717C126.359 11.2841 126.066 11.1862 126.066 10.4027C126.066 9.81514 126.555 9.42342 127.631 9.42342C129.001 9.42342 129.393 9.81513 129.588 10.7944H134.971C134.677 7.46482 132.329 5.89795 127.436 5.89795C122.738 5.89795 120.194 7.66068 120.194 10.7944C120.194 12.3613 120.879 13.6344 122.151 14.3199C123.13 14.9075 123.913 15.1033 126.653 15.6909C129.491 16.2785 129.588 16.5723 129.588 17.2578C129.588 18.0412 128.806 18.5309 127.729 18.5309C125.674 18.5309 125.674 17.4536 125.478 16.1806H119.9V16.2785C120.292 19.9019 122.053 22.1543 127.729 22.1543Z" fill="#1f2937"/>
<path d="M22.7423 0.587891H14.9981C14.9981 0.587891 11.8613 5.6853 11.4692 6.46952C10.9791 5.39122 7.5481 0.587891 7.5481 0.587891H0L7.64611 10.4886L0 21.6637H7.74414L9.50865 18.3308C10.1948 17.2525 10.783 16.0762 11.1751 15.1939C11.6652 16.3703 11.9593 17.0565 12.7435 18.2328L14.8021 21.6637H22.6443L14.9981 10.4886L22.7423 0.587891Z" fill="#1f2937"/>
<path d="M38.1324 1.86223C36.662 0.88196 35.0936 0.587891 31.6626 0.587891H22.7422V21.7617H29.408V15.292H33.2311C36.0739 15.292 37.7403 14.7038 39.1127 13.3314C40.4851 11.959 41.1713 10.1945 41.1713 8.13596C41.1713 5.3912 40.093 3.13658 38.1324 1.86223ZM31.9567 10.1945H29.408V5.78332H31.8587C33.7212 5.78332 34.7015 6.4695 34.7015 8.03793C34.7015 9.50834 33.8193 10.2926 31.9567 10.1945Z" fill="#1f2937"/>
<path d="M51.8556 -0.000244141C45.2878 -0.000244141 40.9746 4.41097 40.9746 11.0768C40.9746 17.7427 45.2878 22.1539 51.7576 22.1539C58.1294 22.1539 62.4426 17.7427 62.4426 11.0768C62.4426 4.50899 58.2274 -0.000244141 51.8556 -0.000244141ZM51.7576 17.0565C49.0128 17.0565 47.7385 14.8999 47.7385 11.0768C47.7385 7.44981 49.2089 5.29322 51.7576 5.29322C54.3063 5.29322 55.6787 7.35178 55.6787 10.9788C55.6787 14.8999 54.4043 17.0565 51.7576 17.0565Z" fill="#1f2937"/>
</svg>
