<svg width="126" height="35" viewBox="0 0 126 35" fill="none" xmlns="http://www.w3.org/2000/svg">
<g clip-path="url(#clip0_448_265)">
<path d="M125.225 30.4488C125.225 28.5036 123.848 27.0792 121.952 27.0792C120.059 27.0792 118.681 28.5036 118.681 30.4488C118.681 32.3908 120.059 33.8128 121.952 33.8128C123.848 33.8128 125.225 32.3885 125.225 30.4488ZM121.092 30.6216V32.8225H120.383V27.9693H122.146C123.179 27.9693 123.653 28.4215 123.653 29.303C123.653 29.8459 123.287 30.276 122.815 30.3383V30.3588C123.225 30.4243 123.375 30.7905 123.459 31.4604C123.524 31.8945 123.61 32.6473 123.764 32.8241H122.925C122.729 32.3679 122.749 31.7224 122.599 31.1819C122.474 30.7707 122.255 30.6208 121.785 30.6208H121.096V30.6232L121.092 30.6216ZM121.972 29.9942C122.661 29.9942 122.858 29.6265 122.858 29.3022C122.858 28.9187 122.661 28.6156 121.972 28.6156H121.092V29.9958H121.972V29.9942ZM117.9 30.4488C117.9 28.0522 119.799 26.4321 121.949 26.4321C124.105 26.4321 126.001 28.0522 126.001 30.4488C126.001 32.8406 124.106 34.4623 121.949 34.4623C119.799 34.4623 117.9 32.8406 117.9 30.4488Z" fill="#1f2937"/>
<path d="M103.869 33.7623L99.2012 28.517L94.5747 33.7623H84.8398L94.3542 23.0507L84.8398 12.336H94.8787L99.5933 17.5411L104.13 12.336H113.818L104.351 23.0058L113.949 33.7623H103.869ZM66.1465 33.7623V0.0090332H84.8398V7.53257H74.0646V12.336H84.8398V19.5754H74.0646V26.2199H84.8398V33.7623H66.1465Z" fill="#1f2937"/>
<path d="M58.2582 0.0090332V13.8227H58.1707C56.4249 11.812 54.2428 11.1113 51.7126 11.1113C46.5278 11.1113 42.6218 14.6458 41.2508 19.315C39.6869 14.1691 35.6542 11.015 29.6756 11.015C24.8192 11.015 20.9857 13.1985 18.9831 16.7575V12.3352H8.94662V7.53336H19.9005V0.0106136H0V33.7624H8.94662V19.5754H17.8641C17.5894 20.6664 17.4521 21.7875 17.4554 22.9126C17.4554 29.9501 22.8221 34.8955 29.674 34.8955C35.4337 34.8955 39.2325 32.1833 41.2398 27.2457H33.5721C32.5357 28.7317 31.7483 29.1704 29.6748 29.1704C27.2714 29.1704 25.1972 27.0682 25.1972 24.5793H40.8098C41.4871 30.1702 45.834 34.991 51.8 34.991C54.3735 34.991 56.7296 33.7229 58.17 31.5804H58.2566V33.7671H66.1448V0.0106136H58.2582V0.0090332ZM25.446 19.6764C25.9445 17.5316 27.6037 16.1301 29.6748 16.1301C31.9554 16.1301 33.5303 17.4882 33.9438 19.6764H25.446ZM53.471 28.6259C50.5644 28.6259 48.7579 25.9121 48.7579 23.0776C48.7579 20.0473 50.3298 17.1362 53.471 17.1362C56.7304 17.1362 58.029 20.0489 58.029 23.0776C58.029 25.9484 56.654 28.6259 53.471 28.6259Z" fill="#1f2937"/>
</g>
<defs>
<clipPath id="clip0_448_265">
<rect width="126" height="35" fill="white"/>
</clipPath>
</defs>
</svg>
