<svg width="221" height="54" viewBox="0 0 221 54" fill="none" xmlns="http://www.w3.org/2000/svg">
<g clip-path="url(#clip0_217_366)">
<path d="M68.6982 54C83.6099 54 95.6982 41.9117 95.6982 27C95.6982 12.0883 83.6099 0 68.6982 0C53.7865 0 41.6982 12.0883 41.6982 27C41.6982 41.9117 53.7865 54 68.6982 54Z" fill="#391400"/>
<path d="M68.024 28.208L68.104 25.536L77.544 40H73.672L66.04 28.224L67.72 28.448L64.296 32.976L64.632 30.752V40H61.16V16.4H64.632V29.136L63.96 28.576L73.256 16.4H77L68.024 28.208Z" fill="white"/>
<path d="M27 54C41.9117 54 54 41.9117 54 27C54 12.0883 41.9117 0 27 0C12.0883 0 0 12.0883 0 27C0 41.9117 12.0883 54 27 54Z" fill="#391400"/>
<path d="M25.224 40V16.4H28.648V40H25.224Z" fill="white"/>
<path d="M121.144 30.648C121.144 31.6293 120.963 32.6267 120.6 33.64C120.237 34.6533 119.688 35.592 118.952 36.456C118.216 37.32 117.288 38.0187 116.168 38.552C115.048 39.0747 113.731 39.336 112.216 39.336C110.157 39.336 108.403 38.8187 106.952 37.784C105.512 36.7387 104.413 35.304 103.656 33.48C102.899 31.656 102.52 29.5653 102.52 27.208C102.52 24.84 102.899 22.7493 103.656 20.936C104.413 19.112 105.512 17.6827 106.952 16.648C108.403 15.6133 110.157 15.096 112.216 15.096C113.933 15.096 115.395 15.432 116.6 16.104C117.816 16.776 118.781 17.64 119.496 18.696C120.221 19.752 120.701 20.8507 120.936 21.992C121.075 22.6107 121.144 23.1973 121.144 23.752H117.656C117.656 23.4533 117.629 23.128 117.576 22.776C117.459 21.9227 117.171 21.1387 116.712 20.424C116.264 19.7093 115.661 19.1387 114.904 18.712C114.157 18.2853 113.261 18.072 112.216 18.072C111 18.072 109.928 18.4133 109 19.096C108.072 19.768 107.347 20.7813 106.824 22.136C106.312 23.4907 106.056 25.1813 106.056 27.208C106.056 29.224 106.312 30.9147 106.824 32.28C107.347 33.6347 108.072 34.6587 109 35.352C109.928 36.0347 111 36.376 112.216 36.376C113.101 36.376 113.88 36.216 114.552 35.896C115.224 35.576 115.789 35.144 116.248 34.6C116.707 34.056 117.053 33.4427 117.288 32.76C117.533 32.0773 117.656 31.3733 117.656 30.648H121.144ZM133.136 39.32C131.387 39.32 129.84 38.9413 128.496 38.184C127.163 37.4267 126.118 36.3867 125.36 35.064C124.614 33.7307 124.24 32.2053 124.24 30.488C124.24 28.7813 124.614 27.272 125.36 25.96C126.118 24.6373 127.163 23.608 128.496 22.872C129.84 22.1253 131.387 21.752 133.136 21.752C134.886 21.752 136.427 22.1253 137.76 22.872C139.104 23.608 140.15 24.6373 140.896 25.96C141.654 27.272 142.032 28.7813 142.032 30.488C142.032 32.2053 141.654 33.7307 140.896 35.064C140.15 36.3867 139.104 37.4267 137.76 38.184C136.427 38.9413 134.886 39.32 133.136 39.32ZM133.136 36.344C134.203 36.344 135.142 36.104 135.952 35.624C136.763 35.144 137.398 34.4667 137.856 33.592C138.315 32.7067 138.544 31.672 138.544 30.488C138.544 29.3147 138.315 28.296 137.856 27.432C137.398 26.568 136.763 25.9013 135.952 25.432C135.142 24.9627 134.203 24.728 133.136 24.728C132.08 24.728 131.142 24.9627 130.32 25.432C129.51 25.9013 128.875 26.568 128.416 27.432C127.958 28.296 127.728 29.3147 127.728 30.488C127.728 31.672 127.958 32.7067 128.416 33.592C128.875 34.4667 129.51 35.144 130.32 35.624C131.142 36.104 132.08 36.344 133.136 36.344ZM152.937 39.336C151.54 39.336 150.254 39 149.081 38.328C147.908 37.6453 146.969 36.6427 146.265 35.32C145.561 33.9973 145.209 32.3813 145.209 30.472C145.209 28.6053 145.566 27.0213 146.281 25.72C146.996 24.4187 147.94 23.432 149.113 22.76C150.286 22.0773 151.561 21.736 152.937 21.736C154.26 21.736 155.486 22.056 156.617 22.696C157.758 23.336 158.676 24.2267 159.369 25.368C160.062 26.4987 160.409 27.8053 160.409 29.288C160.409 29.3307 160.409 29.3733 160.409 29.416C160.409 29.448 160.409 29.48 160.409 29.512L158.393 29.576C158.393 29.544 158.393 29.512 158.393 29.48C158.393 29.4373 158.393 29.4 158.393 29.368C158.393 28.4827 158.169 27.6987 157.721 27.016C157.273 26.3227 156.681 25.7787 155.945 25.384C155.22 24.9787 154.446 24.776 153.625 24.776C152.249 24.776 151.097 25.24 150.169 26.168C149.241 27.0853 148.777 28.52 148.777 30.472C148.777 32.4133 149.241 33.8533 150.169 34.792C151.108 35.72 152.26 36.184 153.625 36.184C154.478 36.184 155.268 35.9813 155.993 35.576C156.718 35.16 157.3 34.5947 157.737 33.88C158.174 33.1653 158.393 32.3493 158.393 31.432L160.409 31.512C160.409 32.984 160.073 34.312 159.401 35.496C158.74 36.68 157.844 37.6187 156.713 38.312C155.593 38.9947 154.334 39.336 152.937 39.336ZM158.393 39V13.992H161.881V39H158.393ZM166.383 39V22.008H169.807V39H166.383ZM168.111 18.488C167.513 18.488 166.996 18.328 166.559 18.008C166.132 17.6773 165.919 17.224 165.919 16.648C165.919 16.0827 166.132 15.64 166.559 15.32C166.996 14.9893 167.513 14.824 168.111 14.824C168.697 14.824 169.204 14.9893 169.631 15.32C170.068 15.64 170.287 16.0827 170.287 16.648C170.287 17.224 170.068 17.6773 169.631 18.008C169.204 18.328 168.697 18.488 168.111 18.488ZM186.524 39V31.16C186.524 30.7013 186.524 30.312 186.524 29.992C186.524 29.672 186.524 29.3733 186.524 29.096C186.524 28.264 186.396 27.5333 186.14 26.904C185.884 26.264 185.463 25.768 184.876 25.416C184.29 25.0533 183.506 24.872 182.524 24.872C181.66 24.872 180.876 25.0853 180.172 25.512C179.479 25.9387 178.924 26.52 178.508 27.256C178.103 27.9813 177.9 28.808 177.9 29.736L176.412 29C176.412 27.624 176.738 26.392 177.388 25.304C178.039 24.2053 178.908 23.336 179.996 22.696C181.095 22.056 182.295 21.736 183.596 21.736C184.94 21.736 186.087 21.9973 187.036 22.52C187.996 23.032 188.727 23.768 189.228 24.728C189.74 25.6773 189.996 26.8133 189.996 28.136C189.996 28.6267 189.996 29.1707 189.996 29.768C189.996 30.3653 189.996 30.9413 189.996 31.496V39H186.524ZM174.428 39V22.008H177.9V39H174.428ZM205.518 37.64C206.478 37.7253 207.32 37.9067 208.046 38.184C208.771 38.4507 209.336 38.8453 209.742 39.368C210.158 39.9013 210.366 40.6 210.366 41.464C210.366 42.4347 210.035 43.2773 209.374 43.992C208.723 44.7173 207.747 45.2773 206.446 45.672C205.144 46.0773 203.528 46.28 201.598 46.28C198.835 46.28 196.728 45.88 195.278 45.08C193.827 44.28 193.102 43.192 193.102 41.816C193.102 41.4 193.15 41.032 193.246 40.712C193.342 40.392 193.459 40.1253 193.598 39.912L196.83 40.392C196.755 40.4987 196.68 40.6533 196.606 40.856C196.531 41.0693 196.494 41.3253 196.494 41.624C196.494 42.3813 196.958 42.92 197.886 43.24C198.814 43.56 200.099 43.72 201.742 43.72C202.947 43.72 203.944 43.6347 204.734 43.464C205.534 43.304 206.131 43.0693 206.526 42.76C206.92 42.4507 207.118 42.088 207.118 41.672C207.118 41.0427 206.846 40.648 206.302 40.488C205.758 40.328 205.102 40.216 204.334 40.152L197.886 39.624C196.766 39.528 195.848 39.192 195.134 38.616C194.43 38.04 194.078 37.3147 194.078 36.44C194.078 35.896 194.216 35.3893 194.494 34.92C194.771 34.4507 195.091 34.056 195.454 33.736C195.827 33.416 196.147 33.2187 196.414 33.144L198.686 34.232C198.44 34.264 198.142 34.4293 197.79 34.728C197.448 35.016 197.278 35.3573 197.278 35.752C197.278 36.1147 197.427 36.4133 197.726 36.648C198.035 36.8827 198.632 37.0373 199.518 37.112L205.518 37.64ZM207.646 22.008H210.798L209.502 28.648C209.267 29.8853 208.835 31.0053 208.206 32.008C207.587 33 206.744 33.784 205.678 34.36C204.622 34.936 203.304 35.224 201.726 35.224C200.083 35.224 198.67 34.9413 197.486 34.376C196.302 33.8107 195.39 33.0267 194.75 32.024C194.12 31.0107 193.806 29.8587 193.806 28.568C193.806 27.256 194.131 26.0827 194.782 25.048C195.443 24.0133 196.35 23.2027 197.502 22.616C198.664 22.0293 199.992 21.736 201.486 21.736C202.744 21.736 203.859 21.9493 204.83 22.376C205.811 22.8027 206.59 23.3467 207.166 24.008C207.742 24.6693 208.056 25.3573 208.11 26.072L207.118 26.184L207.646 22.008ZM201.71 32.392C202.638 32.392 203.438 32.2427 204.11 31.944C204.782 31.6347 205.299 31.192 205.662 30.616C206.024 30.0293 206.206 29.3253 206.206 28.504C206.206 27.6933 206.024 27 205.662 26.424C205.299 25.8373 204.782 25.3893 204.11 25.08C203.438 24.76 202.643 24.6 201.726 24.6C200.84 24.6 200.056 24.7653 199.374 25.096C198.702 25.416 198.174 25.8693 197.79 26.456C197.406 27.0427 197.214 27.7413 197.214 28.552C197.214 29.3627 197.395 30.056 197.758 30.632C198.12 31.1973 198.638 31.6347 199.31 31.944C199.982 32.2427 200.782 32.392 201.71 32.392ZM216.117 39.432C215.519 39.432 215.013 39.2293 214.597 38.824C214.191 38.4187 213.989 37.9173 213.989 37.32C213.989 36.7333 214.191 36.2373 214.597 35.832C215.013 35.416 215.519 35.208 216.117 35.208C216.693 35.208 217.189 35.416 217.605 35.832C218.021 36.2373 218.229 36.7333 218.229 37.32C218.229 37.9173 218.021 38.4187 217.605 38.824C217.189 39.2293 216.693 39.432 216.117 39.432Z" fill="#391400"/>
</g>
<defs>
<clipPath id="clip0_217_366">
<rect width="221" height="54" fill="white"/>
</clipPath>
</defs>
</svg>
