<svg width="212" height="54" viewBox="0 0 212 54" fill="none" xmlns="http://www.w3.org/2000/svg">
<path d="M112.688 39.32C109.979 39.32 107.909 38.4133 106.48 36.6C105.072 34.7867 104.368 32.3547 104.368 29.304V26.904C104.368 24.8987 104.667 23.1493 105.264 21.656C105.883 20.1627 106.789 19 107.984 18.168C109.179 17.336 110.64 16.92 112.368 16.92C113.968 16.92 115.291 17.24 116.336 17.88C117.381 18.4987 118.139 19.32 118.608 20.344C119.077 21.3467 119.227 22.4453 119.056 23.64L116.304 24.312C116.539 22.264 116.304 20.696 115.6 19.608C114.896 18.4987 113.819 17.944 112.368 17.944C110.747 17.944 109.509 18.52 108.656 19.672C107.824 20.824 107.408 22.7013 107.408 25.304V30.904C107.408 33.528 107.856 35.416 108.752 36.568C109.648 37.72 110.981 38.296 112.752 38.296C113.456 38.296 114.128 38.1787 114.768 37.944C115.408 37.688 115.952 37.2613 116.4 36.664C116.848 36.0667 117.125 35.2347 117.232 34.168L119.216 34.68C118.747 36.3867 117.915 37.592 116.72 38.296C115.547 38.9787 114.203 39.32 112.688 39.32ZM136.465 30.744V31.384C136.465 33.7947 135.857 35.7253 134.641 37.176C133.446 38.6053 131.74 39.32 129.521 39.32C127.324 39.32 125.617 38.6053 124.401 37.176C123.206 35.7253 122.609 33.7947 122.609 31.384V30.744C122.609 28.3547 123.206 26.4453 124.401 25.016C125.596 23.5653 127.302 22.84 129.521 22.84C131.74 22.84 133.446 23.5653 134.641 25.016C135.857 26.4453 136.465 28.3547 136.465 30.744ZM133.585 30.104C133.585 27.8853 133.233 26.296 132.529 25.336C131.846 24.3547 130.844 23.864 129.521 23.864C128.22 23.864 127.217 24.3547 126.513 25.336C125.83 26.296 125.489 27.8853 125.489 30.104V32.024C125.489 34.264 125.83 35.8747 126.513 36.856C127.217 37.816 128.22 38.296 129.521 38.296C130.844 38.296 131.846 37.816 132.529 36.856C133.233 35.8747 133.585 34.264 133.585 32.024V30.104ZM156.102 38.2V39H151.174V36.472C150.512 37.4533 149.776 38.1787 148.966 38.648C148.176 39.096 147.291 39.32 146.31 39.32C144.475 39.32 143.046 38.6373 142.022 37.272C141.019 35.8853 140.518 33.9333 140.518 31.416V30.776C140.518 28.3653 141.104 26.4453 142.278 25.016C143.472 23.5653 145.104 22.84 147.174 22.84C148.688 22.84 149.968 23.3093 151.014 24.248V17.912C151.014 17.1653 150.982 16.728 150.918 16.6C150.854 16.472 150.651 16.3867 150.31 16.344L148.55 16.184V15.32H153.638V36.408C153.638 37.1547 153.67 37.592 153.734 37.72C153.798 37.848 154 37.9333 154.342 37.976L156.102 38.2ZM143.398 32.376C143.398 34.3813 143.686 35.8533 144.262 36.792C144.859 37.7307 145.68 38.2 146.726 38.2C147.408 38.2 148.112 37.9867 148.838 37.56C149.563 37.1333 150.288 36.2693 151.014 34.968V25.816C150.075 24.5573 148.848 23.928 147.334 23.928C145.968 23.928 144.966 24.4507 144.326 25.496C143.707 26.5413 143.398 27.9813 143.398 29.816V32.376ZM161.864 19.576C161.352 19.576 160.925 19.416 160.584 19.096C160.264 18.7547 160.104 18.3173 160.104 17.784C160.104 17.272 160.264 16.856 160.584 16.536C160.925 16.216 161.352 16.056 161.864 16.056C162.376 16.056 162.792 16.216 163.112 16.536C163.453 16.856 163.624 17.272 163.624 17.784C163.624 18.3173 163.453 18.7547 163.112 19.096C162.792 19.416 162.376 19.576 161.864 19.576ZM158.12 24.024V23.16H163.208V36.408C163.208 37.1547 163.24 37.592 163.304 37.72C163.368 37.848 163.571 37.9333 163.912 37.976L165.672 38.168V39H158.12V38.168L159.88 37.976C160.221 37.9333 160.424 37.848 160.488 37.72C160.552 37.592 160.584 37.1547 160.584 36.408V25.752C160.584 25.0053 160.552 24.568 160.488 24.44C160.424 24.312 160.221 24.2267 159.88 24.184L158.12 24.024ZM185.571 38.168V39H178.019V38.168L179.779 37.976C180.12 37.9333 180.323 37.848 180.387 37.72C180.451 37.592 180.483 37.1547 180.483 36.408V28.44C180.483 26.8613 180.227 25.752 179.715 25.112C179.203 24.4507 178.467 24.12 177.507 24.12C176.803 24.12 176.024 24.3333 175.171 24.76C174.317 25.1867 173.517 26.0187 172.771 27.256V36.408C172.771 37.1547 172.803 37.592 172.867 37.72C172.931 37.848 173.133 37.9333 173.475 37.976L175.235 38.168V39H167.683V38.168L169.443 37.976C169.784 37.9333 169.987 37.848 170.051 37.72C170.115 37.592 170.147 37.1547 170.147 36.408V25.752C170.147 25.0053 170.115 24.568 170.051 24.44C169.987 24.312 169.784 24.2267 169.443 24.184L167.683 24.024V23.16H172.611V25.752C173.379 24.728 174.243 23.992 175.203 23.544C176.184 23.0747 177.165 22.84 178.147 22.84C179.725 22.84 180.941 23.3307 181.795 24.312C182.669 25.272 183.107 26.6373 183.107 28.408V36.408C183.107 37.1547 183.139 37.592 183.203 37.72C183.267 37.848 183.469 37.9333 183.811 37.976L185.571 38.168ZM202.345 40.856C202.345 42.5627 201.715 43.864 200.457 44.76C199.219 45.6773 197.491 46.136 195.273 46.136C192.841 46.136 191.059 45.7093 189.929 44.856C188.798 44.024 188.211 42.968 188.169 41.688L190.536 41.208C190.451 42.3813 190.761 43.32 191.465 44.024C192.19 44.7493 193.459 45.112 195.273 45.112C196.894 45.112 198.195 44.8133 199.177 44.216C200.179 43.6187 200.681 42.744 200.681 41.592C200.681 40.7387 200.393 40.0987 199.817 39.672C199.241 39.2453 198.291 39.032 196.969 39.032H193.161C191.731 39.032 190.729 38.7333 190.153 38.136C189.577 37.5173 189.289 36.8347 189.289 36.088C189.289 35.4693 189.438 34.8933 189.737 34.36C190.057 33.8053 190.558 33.2613 191.241 32.728C190.387 32.3227 189.694 31.736 189.161 30.968C188.627 30.1787 188.361 29.2293 188.361 28.12C188.361 26.9467 188.627 25.976 189.161 25.208C189.715 24.4187 190.441 23.832 191.337 23.448C192.254 23.0427 193.267 22.84 194.377 22.84H194.921C196.094 22.84 197.139 23.0533 198.057 23.48L202.697 21.88L203.049 24.28H199.305C199.795 24.7067 200.179 25.24 200.457 25.88C200.755 26.52 200.905 27.2667 200.905 28.12C200.905 29.2507 200.627 30.2107 200.073 31C199.539 31.7893 198.825 32.3867 197.929 32.792C197.033 33.176 196.03 33.368 194.921 33.368H194.377C194.014 33.368 193.662 33.3467 193.321 33.304C192.979 33.2613 192.649 33.1973 192.329 33.112C191.859 33.432 191.518 33.7627 191.305 34.104C191.113 34.4453 191.016 34.7973 191.016 35.16C191.016 35.5867 191.166 35.928 191.465 36.184C191.785 36.44 192.286 36.568 192.969 36.568H197.129C198.814 36.568 200.105 36.9307 201.001 37.656C201.897 38.3813 202.345 39.448 202.345 40.856ZM194.921 32.344C195.497 32.344 196.019 32.216 196.489 31.96C196.979 31.704 197.374 31.2773 197.673 30.68C197.971 30.0613 198.121 29.208 198.121 28.12C198.121 27.0107 197.971 26.1573 197.673 25.56C197.374 24.9413 196.979 24.504 196.489 24.248C196.019 23.992 195.497 23.864 194.921 23.864H194.377C193.801 23.864 193.267 23.992 192.777 24.248C192.286 24.504 191.891 24.9413 191.593 25.56C191.294 26.1573 191.145 27.0107 191.145 28.12C191.145 29.208 191.294 30.0613 191.593 30.68C191.891 31.2773 192.286 31.704 192.777 31.96C193.267 32.216 193.801 32.344 194.377 32.344H194.921ZM207.627 39.32C207.094 39.32 206.657 39.1493 206.315 38.808C205.995 38.4667 205.835 38.0293 205.835 37.496C205.835 36.9627 205.995 36.536 206.315 36.216C206.657 35.8747 207.094 35.704 207.627 35.704C208.182 35.704 208.63 35.8747 208.971 36.216C209.313 36.536 209.483 36.9627 209.483 37.496C209.483 38.0293 209.313 38.4667 208.971 38.808C208.63 39.1493 208.182 39.32 207.627 39.32Z" fill="white"/>
<circle cx="67" cy="27" r="27" fill="white"/>
<path d="M58.536 18.072V17.24H66.248V18.072L64.488 18.264C64.1467 18.2853 63.944 18.3707 63.88 18.52C63.816 18.648 63.784 19.0853 63.784 19.832V29.24L71.784 19.64C72.3173 19.0213 72.584 18.648 72.584 18.52C72.6053 18.3707 72.4347 18.2853 72.072 18.264L70.44 18.072V17.24H76.52V18.072L74.888 18.264C74.6747 18.2853 74.504 18.328 74.376 18.392C74.248 18.4347 74.0987 18.552 73.928 18.744C73.7787 18.9147 73.5227 19.2133 73.16 19.64L68.168 25.656L74.248 36.408C74.5253 36.8987 74.728 37.2507 74.856 37.464C75.0053 37.6773 75.1547 37.816 75.304 37.88C75.4533 37.9227 75.656 37.9547 75.912 37.976L77.448 38.168V39H72.456L66.312 27.896L63.784 30.904V36.408C63.784 37.1547 63.816 37.592 63.88 37.72C63.944 37.848 64.1467 37.9333 64.488 37.976L66.248 38.168V39H58.536V38.168L60.296 37.976C60.6373 37.9333 60.84 37.848 60.904 37.72C60.968 37.592 61 37.1547 61 36.408V19.832C61 19.0853 60.968 18.648 60.904 18.52C60.84 18.3707 60.6373 18.2853 60.296 18.264L58.536 18.072Z" fill="black"/>
<circle cx="27" cy="27" r="27" fill="white"/>
<path d="M23.536 18.104V17.24H31.248V18.104L29.488 18.264C29.1467 18.3067 28.944 18.392 28.88 18.52C28.816 18.648 28.784 19.0853 28.784 19.832V36.408C28.784 37.1547 28.816 37.592 28.88 37.72C28.944 37.848 29.1467 37.9333 29.488 37.976L31.248 38.168V39H23.536V38.168L25.296 37.976C25.6373 37.9333 25.84 37.848 25.904 37.72C25.968 37.592 26 37.1547 26 36.408V19.832C26 19.0853 25.968 18.648 25.904 18.52C25.84 18.392 25.6373 18.3067 25.296 18.264L23.536 18.104Z" fill="black"/>
</svg>
